<svg xmlns="http://www.w3.org/2000/svg" width="198" height="202" viewBox="0 0 198 202">
  <g id="Group_50" data-name="Group 50" transform="translate(-1394 -4855)">
    <ellipse id="Ellipse_9" data-name="Ellipse 9" cx="99" cy="101" rx="99" ry="101" transform="translate(1394 4855)" fill="#f1f1f1"/>
    <g id="Union_1" data-name="Union 1" transform="translate(1444.182 4882)" fill="#ed6e00">
      <path d="M 50.54500961303711 89.33558654785156 C 49.32824325561523 89.33563995361328 48.11318588256836 89.03150177001953 47.03117370605469 88.4560546875 L 7.297926425933838 67.330322265625 C 3.646714925765991 65.38845825195313 2.255703210830688 60.83805465698242 4.197173595428467 57.18673706054688 C 5.502679824829102 54.73147964477539 8.042644500732422 53.20624160766602 10.82586765289307 53.20624160766602 C 12.04293823242188 53.20624160766602 13.25837326049805 53.51044464111328 14.3407621383667 54.08597183227539 L 41.85826873779297 68.71705627441406 L 42.59299850463867 69.10771179199219 L 42.59299850463867 68.27558135986328 L 42.59299850463867 8.000102043151855 C 42.59299850463867 3.86452579498291 45.95752716064453 0.4999964535236359 50.09310150146484 0.4999964535236359 C 54.22866821289063 0.4999964535236359 57.59319686889648 3.86452579498291 57.59319686889648 8.000102043151855 L 57.59319686889648 79.16327667236328 L 57.59319686889648 79.24912261962891 L 57.62183380126953 79.33005523681641 C 58.32156372070313 81.30772399902344 58.15826797485352 83.50382995605469 57.17383193969727 85.35527038574219 C 55.86869049072266 87.81032562255859 53.32868957519531 89.33547973632813 50.54500961303711 89.33558654785156 Z" stroke="none"/>
      <path d="M 50.54500198364258 88.83557891845703 C 53.14335250854492 88.83547973632813 55.51418685913086 87.41197967529297 56.73234939575195 85.12052917480469 C 57.65118789672852 83.39247894287109 57.8035774230957 81.34273529052734 57.15047454833984 79.49683380126953 L 57.09320068359375 79.33498382568359 L 57.09320068359375 79.16328430175781 L 57.09320068359375 8.000095367431641 C 57.09320068359375 4.140232563018799 53.95296478271484 1.000007510185242 50.09310150146484 1.000007510185242 C 46.23323822021484 1.000007510185242 43.09300231933594 4.140232563018799 43.09300231933594 8.000095367431641 L 43.09300231933594 68.27558135986328 L 43.09300231933594 69.93984222412109 L 41.62353897094727 69.15853118896484 L 14.10602569580078 54.52744674682617 C 13.09563827514648 53.99020767211914 11.96137619018555 53.70623397827148 10.82587623596191 53.70623397827148 C 8.227975845336914 53.70623397827148 5.857163429260254 55.12983322143555 4.638650894165039 57.42147064208984 C 2.82658839225769 60.82938385009766 4.12488842010498 65.07645416259766 7.532663345336914 66.88885498046875 L 47.26596450805664 88.01459503173828 C 48.27593994140625 88.55174255371094 49.4098014831543 88.83563232421875 50.54498672485352 88.83557891845703 L 50.54500198364258 88.83557891845703 M 50.54504013061523 89.83557891845703 C 49.27803802490234 89.83564758300781 47.99296188354492 89.53388214111328 46.79640197753906 88.89749145507813 L 7.063200950622559 67.77180480957031 C 3.162600994110107 65.69730377197266 1.681200981140137 60.85349655151367 3.755700826644897 56.95199584960938 C 5.193695068359375 54.24757766723633 7.962831974029541 52.70623779296875 10.82587623596191 52.70623779296875 C 12.09315872192383 52.70623779296875 13.37842845916748 53.00798797607422 14.57550048828125 53.64449310302734 L 42.09300231933594 68.27558135986328 L 42.09300231933594 8.000095367431641 C 42.09300231933594 3.58200740814209 45.67499923706055 7.476806786144152e-06 50.09310150146484 7.476806786144152e-06 C 54.51210021972656 7.476806786144152e-06 58.09320068359375 3.58200740814209 58.09320068359375 8.000095367431641 L 58.09320068359375 79.16328430175781 C 58.81509017944336 81.20355987548828 58.71155166625977 83.52828216552734 57.61529922485352 85.59000396728516 C 56.17779922485352 88.29404449462891 53.40826416015625 89.83547210693359 50.54504013061523 89.83557891845703 Z" stroke="none" fill="#f1f1f1"/>
    </g>
  </g>
</svg>
