<svg xmlns="http://www.w3.org/2000/svg" width="1905" height="1190.827" viewBox="0 0 1905 1190.827">
  <g id="Symbol_3_1" data-name="Symbol 3 – 1" transform="translate(-1 -2873.314)">
    <path id="Subtraction_8" data-name="Subtraction 8" d="M2304.908,1263.14h-.046c-10.951,0-22.042-.428-32.965-1.272-11.2-.867-22.543-2.2-33.7-3.956-38.734-6.1-78.232-15.265-124.3-28.849-41.538-12.246-84.641-26.976-130.274-42.57-55.289-18.894-117.953-40.308-190.2-61.5-82.858-24.3-165.587-44.555-252.913-61.926-24.966-4.966-50.7-9.768-76.492-14.271-26.968-4.709-54.8-9.233-82.721-13.448-29.111-4.393-59.194-8.583-89.412-12.452-31.348-4.015-63.838-7.813-96.566-11.288-33.854-3.595-68.905-6.943-104.18-9.952-36.475-3.113-74.244-5.955-112.258-8.447-39.228-2.572-79.869-4.85-120.8-6.772-42.111-1.976-85.781-3.633-129.8-4.925l-3.274-.1V258.929c30.411,1.142,60.8,1.721,90.316,1.721,91.532,0,176.884-5.465,253.683-16.244,20.1-2.822,39.837-5.907,58.648-9.171,17.87-3.1,35.5-6.465,52.4-10,31.061-6.5,60.281-13.659,89.328-21.9,53.746-15.24,97.3-31.491,139.428-47.207l.01,0,.01,0c24.589-9.175,47.815-17.841,72.655-26.2,13.342-4.488,25.866-8.453,38.287-12.122,13.908-4.108,27.395-7.763,41.231-11.172a580.047,580.047,0,0,1,64.566-12.305c10.312-1.339,20.678-2.354,30.81-3.018,10.083-.66,20.294-.994,30.351-.994a503.449,503.449,0,0,1,76.837,6.088,783.824,783.824,0,0,1,82.692,17.729c59.075,15.682,126.264,38.706,207.961,67.177,70.354,24.516,165.767,48.705,283.589,71.894,47.531,9.355,99.041,18.6,153.1,27.484,44.721,7.348,91.519,14.5,139.093,21.266v839.632c-45.943,34.95-93.659,62.9-141.824,83.061-14.048,5.882-28.31,11.164-42.39,15.7-14.871,4.79-29.943,8.879-44.8,12.154a459.647,459.647,0,0,1-47.021,7.852A438.029,438.029,0,0,1,2304.908,1263.14Z" transform="translate(-724 2801)" fill="rgba(0,0,0,0.11)" opacity="0.26"/>
    <path id="Subtraction_7" data-name="Subtraction 7" d="M2295.908,1231.14h-.046c-10.964,0-22.055-.428-32.965-1.272-11.2-.867-22.539-2.2-33.7-3.955-38.742-6.1-78.24-15.269-124.3-28.85-41.539-12.247-84.634-26.974-130.26-42.565l-.015-.005c-55.292-18.9-117.96-40.311-190.2-61.5-82.86-24.3-165.589-44.554-252.914-61.926-25-4.973-50.74-9.774-76.491-14.271-26.939-4.7-54.77-9.229-82.721-13.448-29.109-4.393-59.192-8.582-89.412-12.452-31.379-4.019-63.868-7.816-96.566-11.288-33.849-3.594-68.9-6.942-104.18-9.952-36.415-3.107-74.184-5.95-112.258-8.447-39.2-2.57-79.84-4.848-120.8-6.771-42.113-1.976-85.783-3.634-129.8-4.926L702,949.009V226.364c35.124,1.516,70.221,2.286,104.316,2.286,91.535,0,176.887-5.465,253.684-16.243,20.1-2.822,39.833-5.908,58.646-9.172,17.877-3.1,35.508-6.467,52.405-10,31.057-6.5,60.276-13.659,89.327-21.9,53.751-15.241,97.309-31.493,139.432-47.21l.009,0,.007,0c24.581-9.172,47.8-17.835,72.656-26.2,13.332-4.485,25.855-8.45,38.287-12.122,13.907-4.109,27.394-7.764,41.231-11.173a579.721,579.721,0,0,1,64.566-12.3c10.308-1.338,20.673-2.354,30.81-3.019,10.075-.66,20.287-.994,30.351-.994a503.44,503.44,0,0,1,76.837,6.088,783.907,783.907,0,0,1,82.692,17.729c59.069,15.681,126.26,38.706,207.961,67.178,68.646,23.922,161.22,47.548,275.15,70.223,46.351,9.225,96.589,18.354,149.318,27.133,44.06,7.336,90.26,14.5,137.315,21.283v852.029c-44.718,32.386-90.968,58.159-137.465,76.6-13.395,5.313-26.987,10.079-40.4,14.166-14.11,4.3-28.411,7.97-42.506,10.905-14.772,3.077-29.731,5.436-44.461,7.01A437.526,437.526,0,0,1,2295.908,1231.14Z" transform="translate(-701 2815)" fill="rgba(237,110,0,0.97)"/>
  </g>
</svg>
