<svg xmlns="http://www.w3.org/2000/svg" width="698" height="933.652" viewBox="0 0 698 933.652">
  <path id="Subtraction_4" data-name="Subtraction 4" d="M809,1039.485V106.646c14.33-.54,29.148-.813,44.043-.813a1176.026,1176.026,0,0,1,123.715,6.414c20.388,2.166,40.676,4.911,60.3,8.16,19.927,3.3,39.663,7.2,58.661,11.588,19.314,4.464,38.346,9.548,56.567,15.112,18.546,5.662,36.721,11.964,54.022,18.73,17.624,6.892,34.791,14.443,51.024,22.443,16.547,8.154,32.554,16.986,47.573,26.251a505.735,505.735,0,0,1,43.671,30.153,449.968,449.968,0,0,1,39.316,34.151,409.754,409.754,0,0,1,34.509,38.243,385.9,385.9,0,0,1,29.249,42.43,379.455,379.455,0,0,1,23.536,46.712,391.778,391.778,0,0,1,17.372,51.089,425.031,425.031,0,0,1,10.755,55.561A482.329,482.329,0,0,1,1507,573c0,8.878-.37,17.8-1.1,26.51-.721,8.605-1.812,17.246-3.244,25.682a302.017,302.017,0,0,1-12.6,48.9,314.868,314.868,0,0,1-20.209,45.659,349.984,349.984,0,0,1-27.172,42.463,406.9,406.9,0,0,1-33.487,39.313,485.323,485.323,0,0,1-39.156,36.211c-13.679,11.354-28.542,22.509-44.178,33.155-15.218,10.362-31.554,20.5-48.553,30.146-16.546,9.384-34.136,18.53-52.281,27.183-17.663,8.423-36.289,16.588-55.362,24.268a1186.968,1186.968,0,0,1-117.381,39.975c-39.181,11.171-80.209,20.885-121.944,28.874C890.309,1029,849.487,1035.105,809,1039.485Z" transform="translate(-809 -105.834)" fill="rgba(237,110,0,0.35)"/>
</svg>
