<svg xmlns="http://www.w3.org/2000/svg" width="198" height="202" viewBox="0 0 198 202">
  <g id="Group_48" data-name="Group 48" transform="translate(-678 -4871)">
    <ellipse id="Ellipse_6" data-name="Ellipse 6" cx="99" cy="101" rx="99" ry="101" transform="translate(678 4871)" fill="#f1f1f1"/>
    <path id="Icon_awesome-phone-alt" data-name="Icon awesome-phone-alt" d="M104.479,64.569,80.953,56a5.642,5.642,0,0,0-5.882,1.231L64.653,68.049C48.3,61.5,35.143,50.319,27.433,36.426l12.729-8.852a3.872,3.872,0,0,0,1.449-5L31.529,2.589A5.347,5.347,0,0,0,25.753.108L3.907,4.391A4.5,4.5,0,0,0,0,8.566C0,54.343,43.67,91.375,97.465,91.375a4.941,4.941,0,0,0,4.915-3.319l5.041-18.561a4.21,4.21,0,0,0-2.943-4.926Z" transform="matrix(0.999, 0.052, -0.052, 0.999, 725.282, 4923.5)" fill="#ed6e00" stroke="#f1f1f1" stroke-width="2"/>
  </g>
</svg>
