<svg xmlns="http://www.w3.org/2000/svg" width="96" height="148.61" viewBox="0 0 96 148.61">
  <g id="programmer" transform="translate(-0.387 -0.001)">
    <path id="Path_70" data-name="Path 70" d="M114.49,278.525V280.7a2.928,2.928,0,0,1-2.927,2.927H46.977A2.928,2.928,0,0,1,44.05,280.7v-2.172A35.221,35.221,0,0,1,79.27,243.3a35.855,35.855,0,0,1,4.782.322,35.22,35.22,0,0,1,30.438,34.9Zm0,0" transform="translate(-30.884 -172.095)" fill="#ed6e00"/>
    <path id="Path_71" data-name="Path 71" d="M137.606,279.3v2.172a2.928,2.928,0,0,1-2.927,2.927H79.657a2.928,2.928,0,0,1-2.927-2.927V279.3a35.228,35.228,0,0,1,30.438-34.9,35.22,35.22,0,0,1,30.438,34.9Zm0,0" transform="translate(-54 -172.875)" fill="#ed6e00"/>
    <path id="Path_72" data-name="Path 72" d="M146.175,226.089a7.538,7.538,0,0,1-7.537-7.539V201.8h15.076V218.55A7.539,7.539,0,0,1,146.175,226.089Zm0,0" transform="translate(-97.788 -142.736)" fill="#fff"/>
    <path id="Path_73" data-name="Path 73" d="M60.938,139.219a6.578,6.578,0,0,0,6.559,6.559h2.687V132.66H67.5a6.579,6.579,0,0,0-6.559,6.559Zm0,0" transform="translate(-42.829 -93.833)" fill="#fff"/>
    <path id="Path_74" data-name="Path 74" d="M238.941,132.66h-2.687v13.118h2.687a6.559,6.559,0,0,0,0-13.118Zm0,0" transform="translate(-166.836 -93.833)" fill="#fff"/>
    <path id="Path_75" data-name="Path 75" d="M133.73,76.095v25.2a21.715,21.715,0,0,1-17.871,21.307,21,21,0,0,1-3.769.334A21.7,21.7,0,0,1,90.449,101.3v-25.2a2.935,2.935,0,0,1,2.927-2.927H130.8a2.935,2.935,0,0,1,2.927,2.927Zm0,0" transform="translate(-63.704 -51.753)" fill="#f1f1f1"/>
    <path id="Path_76" data-name="Path 76" d="M151.939,76.095v25.2a21.715,21.715,0,0,1-17.871,21.307A21.711,21.711,0,0,1,116.191,101.3v-25.2a2.935,2.935,0,0,1,2.927-2.927h29.894a2.935,2.935,0,0,1,2.927,2.927Zm0,0" transform="translate(-81.912 -51.753)" fill="#fff"/>
    <path id="Path_77" data-name="Path 77" d="M98.046,300.032v54.63a2.928,2.928,0,0,1-2.927,2.927H7.318a2.928,2.928,0,0,1-2.927-2.927v-54.63a2.928,2.928,0,0,1,2.927-2.927h87.8A2.928,2.928,0,0,1,98.046,300.032Zm0,0" transform="translate(-2.832 -210.15)" fill="#f1f1f1"/>
    <path id="Path_78" data-name="Path 78" d="M128.052,300.032v54.63a2.928,2.928,0,0,1-2.927,2.927H49.74a2.927,2.927,0,0,1-2.927-2.927v-54.63a2.927,2.927,0,0,1,2.927-2.927h75.386A2.928,2.928,0,0,1,128.052,300.032Zm0,0" transform="translate(-32.839 -210.15)" fill="#fff"/>
    <path id="Path_79" data-name="Path 79" d="M139.124,362.348h-9.492a2.926,2.926,0,0,0-2.535,1.463l-4.746,8.22a2.923,2.923,0,0,0,0,2.927l4.746,8.221a2.926,2.926,0,0,0,2.535,1.463h9.492a2.927,2.927,0,0,0,2.535-1.463l4.746-8.221a2.928,2.928,0,0,0,0-2.927l-4.746-8.22a2.929,2.929,0,0,0-2.535-1.463Zm0,0" transform="translate(-85.991 -256.298)" fill="#ed6e00"/>
    <path id="Path_81" data-name="Path 81" d="M83.41,58.341v8.27c0,4.136-2.428,7.493-5.42,7.493s-5.42-3.357-5.42-7.493v-8.27c0-4.136,2.429-7.493,5.42-7.493a4.821,4.821,0,0,1,3.834,2.192,9.135,9.135,0,0,1,1.586,5.3Zm0,0" transform="translate(-51.057 -35.965)" fill="#ed6e00"/>
    <path id="Path_82" data-name="Path 82" d="M159.522,6.355l-1.23,4.285-2.809,9.8c-2.388,8.341-10.6,14.348-19.181,13.048L111.53,30.641a2.183,2.183,0,0,1-1.891-1.774,2.76,2.76,0,0,1-.03-.381V23.137a12.709,12.709,0,0,1,12.708-12.708h19.007A23.029,23.029,0,0,0,156.8,4.458a1.644,1.644,0,0,1,1.124-.45,1.711,1.711,0,0,1,1.6,2.347Zm0,0" transform="translate(-77.256 -2.834)" fill="#ed6e00"/>
    <g id="Group_10" data-name="Group 10" transform="translate(0.387 0.001)">
      <path id="Path_84" data-name="Path 84" d="M123.866,142.135a2.9,2.9,0,1,1-2.9-2.9A2.9,2.9,0,0,1,123.866,142.135Zm0,0" transform="translate(-83.625 -98.485)" fill="#161616"/>
      <path id="Path_85" data-name="Path 85" d="M196.7,142.135a2.9,2.9,0,1,1-2.9-2.9A2.9,2.9,0,0,1,196.7,142.135Zm0,0" transform="translate(-135.141 -98.485)" fill="#161616"/>
      <path id="Path_86" data-name="Path 86" d="M156.193,175.44a1.171,1.171,0,0,0-2.341,0,3.445,3.445,0,1,1-6.889,0,1.171,1.171,0,0,0-2.341,0,5.786,5.786,0,1,0,11.572,0Zm0,0" transform="translate(-102.408 -123.273)" fill="#161616"/>
      <path id="Path_87" data-name="Path 87" d="M92.289,85.784H78.344A36.275,36.275,0,0,0,57.1,71.092v-.466a22.877,22.877,0,0,0,13.82-17.51H72.1a7.73,7.73,0,0,0,0-15.459H71.2V30.2a4.038,4.038,0,0,0-.161-1.13,19.749,19.749,0,0,0,8.318-11.142l4.021-14.03A2.824,2.824,0,0,0,82.324.529a2.826,2.826,0,0,0-3.57.23A21.833,21.833,0,0,1,64.067,6.425H45.058A13.9,13.9,0,0,0,31.88,15.963,6.581,6.581,0,0,0,20.343,20.3V33.409a6.567,6.567,0,0,0,1.914,4.638,7.727,7.727,0,0,0,2.41,15.069h1.189a22.874,22.874,0,0,0,13.82,17.509V71.1a36.126,36.126,0,0,0-21.248,14.68H4.484a4.1,4.1,0,0,0-4.1,4.1v54.631a4.1,4.1,0,0,0,4.1,4.1H92.289a4.1,4.1,0,0,0,4.1-4.1V89.881a4.1,4.1,0,0,0-4.1-4.1ZM71.2,40H72.1a5.388,5.388,0,1,1,0,10.776h-.942c.046-.869.034-.317.034-10.776ZM33.524,20.3A11.549,11.549,0,0,1,45.059,8.765H64.068A24.161,24.161,0,0,0,80.327,2.493a.5.5,0,0,1,.661-.043.5.5,0,0,1,.19.635c-.015.037-.027.074-.039.113L77.1,17.279C74.806,25.3,66.949,30.664,59.177,29.49l-24.77-2.849a1,1,0,0,1-.885-.991V20.3ZM24.667,50.774a5.388,5.388,0,1,1,0-10.776h.908c0,10.5-.011,9.922.034,10.776ZM22.684,33.408V20.3a4.248,4.248,0,1,1,8.5,0V33.408a4.248,4.248,0,1,1-8.5,0Zm5.232,16.138V39.918a6.594,6.594,0,0,0,5.608-6.509V28.837a3.315,3.315,0,0,0,.616.13c28.009,3.221,25.983,3.027,27.19,3.027a17.691,17.691,0,0,0,7.526-1.723V49.546a20.47,20.47,0,0,1-40.94,0Zm26.839,21.9v4.371a6.368,6.368,0,0,1-12.737,0V71.446A22.72,22.72,0,0,0,54.755,71.446ZM39.677,73.512v2.3a8.71,8.71,0,0,0,17.42,0V73.508A33.922,33.922,0,0,1,75.455,85.785H21.318A33.761,33.761,0,0,1,39.676,73.512Zm54.369,71a1.759,1.759,0,0,1-1.756,1.756H4.484a1.758,1.758,0,0,1-1.756-1.756V89.881a1.758,1.758,0,0,1,1.756-1.756H92.289a1.758,1.758,0,0,1,1.756,1.756Zm0,0" transform="translate(-0.387 -0.001)" fill="#161616"/>
      <path id="Path_88" data-name="Path 88" d="M139.846,360.4a4.108,4.108,0,0,0-3.55-2.049H126.8a4.1,4.1,0,0,0-3.548,2.049l-4.747,8.22a4.11,4.11,0,0,0,0,4.1l4.747,8.221a4.107,4.107,0,0,0,3.548,2.049H136.3a4.109,4.109,0,0,0,3.549-2.049l4.747-8.221a4.11,4.11,0,0,0,0-4.1Zm2.718,11.147-4.746,8.221a1.765,1.765,0,0,1-1.522.878H126.8a1.763,1.763,0,0,1-1.521-.878l-4.747-8.221a1.764,1.764,0,0,1,0-1.756l4.747-8.22a1.761,1.761,0,0,1,1.521-.878H136.3a1.762,1.762,0,0,1,1.522.878l4.746,8.22A1.758,1.758,0,0,1,142.564,371.543Zm0,0" transform="translate(-83.551 -253.47)" fill="#161616"/>
    </g>
  </g>
</svg>
