<svg xmlns="http://www.w3.org/2000/svg" width="129.39" height="112.832" viewBox="0 0 129.39 112.832">
  <g id="ui-design" transform="translate(0)">
    <path id="Path_41" data-name="Path 41" d="M128.751,114.77H6.577A2.578,2.578,0,0,1,4,112.192V6.577A2.577,2.577,0,0,1,6.577,4H128.751a2.577,2.577,0,0,1,2.577,2.577V112.192A2.577,2.577,0,0,1,128.751,114.77Zm0,0" transform="translate(-2.969 -2.969)" fill="#ed6e00"/>
    <path id="Path_42" data-name="Path 42" d="M131.328,22.132v90.057a2.579,2.579,0,0,1-2.577,2.577H6.577A2.579,2.579,0,0,1,4,112.189V6.573A2.579,2.579,0,0,1,6.577,4h30.9L50.632,20.337a4.818,4.818,0,0,0,3.752,1.794Zm0,0" transform="translate(-2.969 -2.966)" fill="#f1f1f1"/>
    <path id="Path_43" data-name="Path 43" d="M153.938,22.132v90.057a2.577,2.577,0,0,1-2.577,2.577H37.038a2.577,2.577,0,0,1-2.577-2.577V6.573A2.578,2.578,0,0,1,37.038,4H60.091L73.242,20.337a4.818,4.818,0,0,0,3.752,1.794Zm0,0" transform="translate(-25.579 -2.966)" fill="#fff"/>
    <path id="Path_44" data-name="Path 44" d="M399,29.555A3.555,3.555,0,1,1,395.446,26,3.555,3.555,0,0,1,399,29.555Zm0,0" transform="translate(-290.882 -19.299)" fill="#fff"/>
    <path id="Path_45" data-name="Path 45" d="M449.485,29.555A3.555,3.555,0,1,1,445.93,26,3.555,3.555,0,0,1,449.485,29.555Zm0,0" transform="translate(-328.354 -19.299)" fill="#fff"/>
    <path id="Path_46" data-name="Path 46" d="M70.887,299.771a6.787,6.787,0,1,1-6.787-6.787A6.787,6.787,0,0,1,70.887,299.771Zm0,0" transform="translate(-42.541 -217.468)" fill="#ed6e00"/>
    <path id="Path_47" data-name="Path 47" d="M154.581,154.968H59.89a2.578,2.578,0,0,1-2.577-2.577v-30.7a2.578,2.578,0,0,1,2.577-2.577h94.691a2.578,2.578,0,0,1,2.577,2.577v30.7A2.578,2.578,0,0,1,154.581,154.968Zm0,0" transform="translate(-42.541 -88.412)" fill="#f1f1f1"/>
    <path id="Path_48" data-name="Path 48" d="M277.07,299.771a6.787,6.787,0,1,1-6.787-6.787A6.787,6.787,0,0,1,277.07,299.771Zm0,0" transform="translate(-195.581 -217.468)" fill="#ed6e00"/>
    <path id="Path_49" data-name="Path 49" d="M203.427,144.251l5.116,19.092a2.577,2.577,0,0,0,4.312,1.155l13.975-13.976a2.577,2.577,0,0,0-1.155-4.312l-19.091-5.115a2.577,2.577,0,0,0-3.157,3.156Zm0,0" transform="translate(-150.927 -104.661)" fill="#ed6e00"/>
    <path id="Path_50" data-name="Path 50" d="M263.31,196.72l-4.256,4.255a2.577,2.577,0,0,1-3.645,0l-3.359-3.359,7.9-7.9,3.359,3.359A2.58,2.58,0,0,1,263.31,196.72Zm0,0" transform="translate(-187.085 -140.816)" fill="#ed6e00"/>
    <g id="Group_5" data-name="Group 5" transform="translate(0)">
      <path id="Path_51" data-name="Path 51" d="M125.781,0H3.608A3.613,3.613,0,0,0,0,3.608V109.223a3.613,3.613,0,0,0,3.608,3.608H125.781a3.613,3.613,0,0,0,3.608-3.608V3.608A3.613,3.613,0,0,0,125.781,0Zm1.546,109.109a1.662,1.662,0,0,1-1.66,1.66H3.721a1.662,1.662,0,0,1-1.659-1.66V3.721A1.661,1.661,0,0,1,3.721,2.062h30.3L46.861,18.016a5.816,5.816,0,0,0,4.553,2.18h75.914Zm0-90.975H51.413a3.767,3.767,0,0,1-2.946-1.411L36.665,2.062h89.116a1.548,1.548,0,0,1,1.546,1.546Zm0,0" transform="translate(0)" fill="#161616"/>
      <path id="Path_52" data-name="Path 52" d="M59.3,39.144a1.032,1.032,0,0,0-1.031-1.031H40.465a1.031,1.031,0,1,0,0,2.062H58.272A1.032,1.032,0,0,0,59.3,39.144Zm0,0" transform="translate(-29.27 -28.29)" fill="#161616"/>
      <path id="Path_53" data-name="Path 53" d="M392.481,22a4.586,4.586,0,1,0,4.585,4.586A4.591,4.591,0,0,0,392.481,22Zm0,7.11A2.524,2.524,0,1,1,395,26.586,2.526,2.526,0,0,1,392.481,29.11Zm0,0" transform="translate(-287.915 -16.33)" fill="#161616"/>
      <path id="Path_54" data-name="Path 54" d="M61.128,304.617a7.819,7.819,0,1,0-7.819-7.818A7.826,7.826,0,0,0,61.128,304.617Zm0-13.574a5.756,5.756,0,1,1-5.757,5.756A5.763,5.763,0,0,1,61.128,291.043Zm0,0" transform="translate(-39.568 -214.496)" fill="#161616"/>
      <path id="Path_55" data-name="Path 55" d="M442.961,22a4.586,4.586,0,1,0,4.586,4.586A4.592,4.592,0,0,0,442.961,22Zm0,7.11a2.524,2.524,0,1,1,2.524-2.524A2.527,2.527,0,0,1,442.961,29.11Zm0,0" transform="translate(-325.384 -16.33)" fill="#161616"/>
      <path id="Path_56" data-name="Path 56" d="M53.313,118.721v30.7a3.613,3.613,0,0,0,3.608,3.608h94.691a3.613,3.613,0,0,0,3.608-3.608v-30.7a3.613,3.613,0,0,0-3.608-3.608H56.921A3.613,3.613,0,0,0,53.313,118.721Zm99.846,0v30.7a1.548,1.548,0,0,1-1.546,1.546H56.921a1.548,1.548,0,0,1-1.546-1.546v-30.7a1.548,1.548,0,0,1,1.546-1.546h94.691A1.548,1.548,0,0,1,153.158,118.721Zm0,0" transform="translate(-39.571 -85.443)" fill="#161616"/>
      <path id="Path_57" data-name="Path 57" d="M131.234,291.046h26.883a1.031,1.031,0,0,0,0-2.062H131.234a1.031,1.031,0,0,0,0,2.062Zm0,0" transform="translate(-96.643 -214.499)" fill="#161616"/>
      <path id="Path_58" data-name="Path 58" d="M131.234,317.378h26.883a1.031,1.031,0,0,0,0-2.062H131.234a1.031,1.031,0,1,0,0,2.062Zm0,0" transform="translate(-96.643 -234.044)" fill="#161616"/>
      <path id="Path_59" data-name="Path 59" d="M131.26,341.648a1.031,1.031,0,0,0,0,2.062h26.883a1.031,1.031,0,0,0,0-2.062Zm0,0" transform="translate(-96.669 -253.589)" fill="#161616"/>
      <path id="Path_60" data-name="Path 60" d="M275.132,296.8a7.818,7.818,0,1,0-7.818,7.818A7.827,7.827,0,0,0,275.132,296.8Zm-13.574,0a5.756,5.756,0,1,1,5.756,5.756A5.764,5.764,0,0,1,261.558,296.8Zm0,0" transform="translate(-192.611 -214.496)" fill="#161616"/>
      <path id="Path_61" data-name="Path 61" d="M364.329,288.984H337.447a1.031,1.031,0,0,0,0,2.062h26.882A1.031,1.031,0,0,0,364.329,288.984Zm0,0" transform="translate(-249.711 -214.499)" fill="#161616"/>
      <path id="Path_62" data-name="Path 62" d="M364.329,315.316H337.447a1.031,1.031,0,0,0,0,2.062h26.882A1.031,1.031,0,0,0,364.329,315.316Zm0,0" transform="translate(-249.711 -234.044)" fill="#161616"/>
      <path id="Path_63" data-name="Path 63" d="M364.329,341.648H337.447a1.031,1.031,0,0,0,0,2.062h26.882A1.031,1.031,0,0,0,364.329,341.648Zm0,0" transform="translate(-249.711 -253.589)" fill="#161616"/>
      <path id="Path_64" data-name="Path 64" d="M154.214,372.879H54.369a1.031,1.031,0,0,0,0,2.062h99.846A1.031,1.031,0,0,0,154.214,372.879Zm0,0" transform="translate(-39.596 -276.77)" fill="#161616"/>
      <path id="Path_65" data-name="Path 65" d="M154.214,400.879H54.369a1.031,1.031,0,0,0,0,2.062h99.846A1.031,1.031,0,0,0,154.214,400.879Zm0,0" transform="translate(-39.596 -297.553)" fill="#161616"/>
      <path id="Path_66" data-name="Path 66" d="M204.575,160.637a3.608,3.608,0,0,0,6.037,1.617l2.309-2.309,2.63,2.631a3.613,3.613,0,0,0,5.1,0l4.256-4.256a3.613,3.613,0,0,0,0-5.1l-2.63-2.63c2.14-2.141,3.9-3.325,3.243-5.794a3.571,3.571,0,0,0-2.552-2.551l-19.091-5.116a3.607,3.607,0,0,0-4.42,4.419Zm18.876-5.962a1.551,1.551,0,0,1,0,2.188l-4.256,4.255a1.549,1.549,0,0,1-2.187,0l-2.63-2.63,6.442-6.443Zm-20.105-15.557,19.091,5.115a1.546,1.546,0,0,1,.694,2.588L209.155,160.8a1.547,1.547,0,0,1-2.589-.694l-5.115-19.091a1.546,1.546,0,0,1,1.894-1.894Zm0,0" transform="translate(-147.954 -101.688)" fill="#161616"/>
    </g>
  </g>
</svg>
