<svg xmlns="http://www.w3.org/2000/svg" width="128.435" height="112" viewBox="0 0 128.435 112">
  <g id="web" transform="translate(0 -0.5)">
    <path id="Path_102" data-name="Path 102" d="M127.83,114.455H6.558A2.558,2.558,0,0,1,4,111.9V7.062A2.558,2.558,0,0,1,6.558,4.5H127.83a2.558,2.558,0,0,1,2.558,2.558V111.9a2.558,2.558,0,0,1-2.558,2.557Zm0,0" transform="translate(-2.977 -2.98)" fill="#ed6e00"/>
    <path id="Path_103" data-name="Path 103" d="M130.388,22.5v89.393a2.56,2.56,0,0,1-2.558,2.558H6.558A2.56,2.56,0,0,1,4,111.894V7.058A2.56,2.56,0,0,1,6.558,4.5H37.234L50.288,20.72A4.779,4.779,0,0,0,54.013,22.5Zm0,0" transform="translate(-2.977 -2.976)" fill="#f1f1f1"/>
    <path id="Path_104" data-name="Path 104" d="M153.056,22.5v89.393a2.559,2.559,0,0,1-2.558,2.558H37.019a2.559,2.559,0,0,1-2.558-2.558V7.058A2.558,2.558,0,0,1,37.019,4.5H59.9L72.956,20.72A4.779,4.779,0,0,0,76.681,22.5Zm0,0" transform="translate(-25.645 -2.976)" fill="#fff"/>
    <path id="Path_105" data-name="Path 105" d="M398.949,30.032A3.529,3.529,0,1,1,395.42,26.5,3.529,3.529,0,0,1,398.949,30.032Zm0,0" transform="translate(-291.627 -19.351)" fill="#fff"/>
    <path id="Path_106" data-name="Path 106" d="M449.433,30.032A3.529,3.529,0,1,1,445.9,26.5,3.529,3.529,0,0,1,449.433,30.032Zm0,0" transform="translate(-329.195 -19.351)" fill="#fff"/>
    <path id="Path_107" data-name="Path 107" d="M59.289,179.7H30.714a2.559,2.559,0,0,1-2.558-2.558V102.839a2.559,2.559,0,0,1,2.558-2.558H59.289a2.559,2.559,0,0,1,2.558,2.558v74.307A2.559,2.559,0,0,1,59.289,179.7Zm0,0" transform="translate(-20.953 -74.252)" fill="#ed6e00"/>
    <path id="Path_108" data-name="Path 108" d="M216.289,135.872H187.714a2.559,2.559,0,0,1-2.558-2.558V102.84a2.559,2.559,0,0,1,2.558-2.558h28.575a2.559,2.559,0,0,1,2.558,2.558v30.473A2.558,2.558,0,0,1,216.289,135.872Zm0,0" transform="translate(-137.785 -74.253)" fill="#f1f1f1"/>
    <path id="Path_109" data-name="Path 109" d="M373.289,135.872H344.715a2.559,2.559,0,0,1-2.558-2.558V102.84a2.559,2.559,0,0,1,2.558-2.558h28.575a2.559,2.559,0,0,1,2.558,2.558v30.473A2.558,2.558,0,0,1,373.289,135.872Zm0,0" transform="translate(-254.617 -74.253)" fill="#f1f1f1"/>
    <path id="Path_110" data-name="Path 110" d="M198.272,317.444a7,7,0,1,1-7-7A7,7,0,0,1,198.272,317.444Zm0,0" transform="translate(-137.125 -230.644)" fill="#f1f1f1"/>
    <path id="Path_111" data-name="Path 111" d="M276.85,317.444a7,7,0,1,1-7-7A7,7,0,0,1,276.85,317.444Zm0,0" transform="translate(-195.599 -230.644)" fill="#f1f1f1"/>
    <path id="Path_112" data-name="Path 112" d="M355.424,317.444a7,7,0,1,1-7-7A7,7,0,0,1,355.424,317.444Zm0,0" transform="translate(-254.07 -230.644)" fill="#f1f1f1"/>
    <path id="Path_113" data-name="Path 113" d="M434,317.444a7,7,0,1,1-7-7A7,7,0,0,1,434,317.444Zm0,0" transform="translate(-312.544 -230.644)" fill="#f1f1f1"/>
    <path id="Path_114" data-name="Path 114" d="M363.427,330.728l5.078,18.95a2.558,2.558,0,0,0,4.28,1.146l13.872-13.872a2.558,2.558,0,0,0-1.146-4.28l-18.95-5.078a2.559,2.559,0,0,0-3.134,3.134Zm0,0" transform="translate(-270.379 -243.341)" fill="#ed6e00"/>
    <path id="Path_115" data-name="Path 115" d="M423.227,383.171,419,387.4a2.558,2.558,0,0,1-3.618,0l-3.334-3.334,7.842-7.842,3.334,3.334A2.559,2.559,0,0,1,423.227,383.171Zm0,0" transform="translate(-306.629 -279.593)" fill="#ed6e00"/>
    <g id="Group_12" data-name="Group 12" transform="translate(0 0.5)">
      <path id="Path_116" data-name="Path 116" d="M124.853.5H3.581A3.586,3.586,0,0,0,0,4.082V108.918A3.586,3.586,0,0,0,3.581,112.5H124.853a3.586,3.586,0,0,0,3.582-3.582V4.082A3.586,3.586,0,0,0,124.853.5Zm1.535,108.305a1.65,1.65,0,0,1-1.648,1.648H3.695a1.65,1.65,0,0,1-1.648-1.648V4.195A1.65,1.65,0,0,1,3.695,2.547H33.768L46.514,18.385a5.773,5.773,0,0,0,4.522,2.164h75.352Zm0-90.3H51.036a3.739,3.739,0,0,1-2.928-1.4L36.395,2.547h88.458a1.537,1.537,0,0,1,1.535,1.535Zm0,0" transform="translate(0 -0.5)" fill="#161616"/>
      <path id="Path_117" data-name="Path 117" d="M40.457,40.664H58.132a1.023,1.023,0,1,0,0-2.047H40.457a1.023,1.023,0,1,0,0,2.047Zm0,0" transform="translate(-29.345 -28.865)" fill="#491352"/>
      <path id="Path_118" data-name="Path 118" d="M392.443,22.5A4.552,4.552,0,1,0,397,27.055,4.557,4.557,0,0,0,392.443,22.5Zm0,7.058a2.505,2.505,0,1,1,2.506-2.505A2.509,2.509,0,0,1,392.443,29.562Zm0,0" transform="translate(-288.65 -16.874)" fill="#161616"/>
      <path id="Path_119" data-name="Path 119" d="M442.927,22.5a4.552,4.552,0,1,0,4.552,4.551A4.557,4.557,0,0,0,442.927,22.5Zm0,7.058a2.505,2.505,0,1,1,2.505-2.505A2.509,2.509,0,0,1,442.927,29.562Zm0,0" transform="translate(-326.218 -16.874)" fill="#161616"/>
      <path id="Path_120" data-name="Path 120" d="M56.313,96.281H27.738a3.586,3.586,0,0,0-3.582,3.582v74.306a3.586,3.586,0,0,0,3.582,3.582H56.313a3.586,3.586,0,0,0,3.582-3.582V99.863A3.586,3.586,0,0,0,56.313,96.281Zm1.535,77.888a1.537,1.537,0,0,1-1.535,1.535H27.738A1.537,1.537,0,0,1,26.2,174.17V99.863a1.537,1.537,0,0,1,1.535-1.535H56.313a1.537,1.537,0,0,1,1.535,1.535Zm0,0" transform="translate(-17.976 -71.776)" fill="#491352"/>
      <path id="Path_121" data-name="Path 121" d="M181.156,99.863v30.473a3.586,3.586,0,0,0,3.582,3.582h28.575a3.586,3.586,0,0,0,3.582-3.582V99.863a3.586,3.586,0,0,0-3.582-3.582H184.738A3.586,3.586,0,0,0,181.156,99.863Zm33.692,0v30.473a1.537,1.537,0,0,1-1.535,1.535H184.738a1.537,1.537,0,0,1-1.535-1.535V99.863a1.537,1.537,0,0,1,1.535-1.535h28.575A1.537,1.537,0,0,1,214.848,99.863Zm0,0" transform="translate(-134.808 -71.776)" fill="#161616"/>
      <path id="Path_122" data-name="Path 122" d="M341.738,133.918h28.575a3.586,3.586,0,0,0,3.582-3.582V99.864a3.586,3.586,0,0,0-3.582-3.582H341.738a3.586,3.586,0,0,0-3.582,3.582v30.473A3.586,3.586,0,0,0,341.738,133.918ZM340.2,99.864a1.537,1.537,0,0,1,1.535-1.535h28.575a1.537,1.537,0,0,1,1.535,1.535v30.473a1.537,1.537,0,0,1-1.535,1.535H341.738a1.537,1.537,0,0,1-1.535-1.535Zm0,0" transform="translate(-251.64 -71.776)" fill="#161616"/>
      <path id="Path_123" data-name="Path 123" d="M185.687,259.426h31.9a1.023,1.023,0,1,0,0-2.047h-31.9a1.023,1.023,0,0,0,0,2.047Zm0,0" transform="translate(-137.418 -191.657)" fill="#161616"/>
      <path id="Path_124" data-name="Path 124" d="M185.687,280.762h31.9a1.023,1.023,0,1,0,0-2.047h-31.9a1.023,1.023,0,0,0,0,2.047Zm0,0" transform="translate(-137.418 -207.535)" fill="#161616"/>
      <path id="Path_125" data-name="Path 125" d="M374.587,257.379h-31.9a1.023,1.023,0,1,0,0,2.047h31.9a1.023,1.023,0,0,0,0-2.047Zm0,0" transform="translate(-254.253 -191.657)" fill="#161616"/>
      <path id="Path_126" data-name="Path 126" d="M374.587,278.715h-31.9a1.023,1.023,0,1,0,0,2.047h31.9a1.023,1.023,0,0,0,0-2.047Zm0,0" transform="translate(-254.253 -207.535)" fill="#161616"/>
      <path id="Path_127" data-name="Path 127" d="M188.294,322.492a8.025,8.025,0,1,0-8.024-8.025A8.035,8.035,0,0,0,188.294,322.492Zm0-14a5.978,5.978,0,1,1-5.977,5.978A5.985,5.985,0,0,1,188.294,308.488Zm0,0" transform="translate(-134.148 -228.167)" fill="#161616"/>
      <path id="Path_128" data-name="Path 128" d="M266.869,306.441a8.025,8.025,0,1,0,8.024,8.025A8.035,8.035,0,0,0,266.869,306.441Zm0,14a5.978,5.978,0,1,1,5.977-5.978A5.985,5.985,0,0,1,266.869,320.445Zm0,0" transform="translate(-192.619 -228.167)" fill="#161616"/>
      <path id="Path_129" data-name="Path 129" d="M231.391,322.473l.968,3.611H185.683a1.023,1.023,0,1,0,0,2.047h47.225l.879,3.28h-48.1a1.023,1.023,0,1,0,0,2.047h48.653l.218.812a3.58,3.58,0,0,0,5.99,1.606l2.293-2.293c2.665,2.665,3.29,3.658,5.143,3.658,1.869,0,2.486-1,5.267-3.783h6.207a1.023,1.023,0,0,0,0-2.047h-4.261a3.577,3.577,0,0,0,.346-3.28h3.916a1.023,1.023,0,0,0,0-2.047h-5.537l-1.791-1.791,2.186-2.187a8.023,8.023,0,1,0-10.419-8.489l-4.357-1.166a8.024,8.024,0,1,0-8.145,10.022Zm21.9,5.877a1.538,1.538,0,0,1,0,2.171c-5.977,5.978-4.673,5.946-9.006,1.614l6.4-6.4Zm-1.419-19.863a5.977,5.977,0,0,1,3.591,10.759,3.57,3.57,0,0,0-2.65-3.238l-6.909-1.852a5.983,5.983,0,0,1,5.968-5.669Zm.411,9.5a1.532,1.532,0,0,1,.726,2.527c0,.005-.007.011-.012.017s-.018.016-.027.026L239.1,334.427a1.533,1.533,0,0,1-2.565-.687c-5.461-20.37-5.549-19.571-4.681-20.437s.064-.779,20.432,4.681Zm-20.515-9.5a5.961,5.961,0,0,1,5.357,3.317l-3.26-.872a3.582,3.582,0,0,0-4.391,4.384l1.353,5.047a5.975,5.975,0,0,1,.941-11.876Zm0,0" transform="translate(-137.415 -228.167)" fill="#161616"/>
    </g>
  </g>
</svg>
